# xmcd CD database file
#
# Track frame offsets:
#	150
#	12520
#	26871
#	42465
#	61886
#	75610
#	92271
#	114324
#	129679
#	146107
#	163953
#	184089
#	198065
#	215437
#
# Disc length: 3377 seconds
#
# Revision: 1
# Processed by: cddbd v1.5.2PL0 Copyright (c) Steve Scherf et al.
# Submitted via: CDex 1.51
#
DISCID=c20d2f0e
DTITLE=32/20 Blues Band - Gimmi Some Sugar
DYEAR=2006
DGENRE=Blues
TTITLE0=Palace of the King
TTITLE1=Born under a bad sign
TTITLE2=Willie and the hand jive
TTITLE3=Honey Bee
TTITLE4=Tore down
TTITLE5=The wind cries Mary
TTITLE6=Oh well
TTITLE7=Rollin' and tumblin'
TTITLE8=Cold shot
TTITLE9=Howlin' for my darlin'
TTITLE10=Let the good times roll
TTITLE11=Bad case of love
TTITLE12=Who's been talkin'
TTITLE13=Cold, cold feelin'
EXTD=YEAR: 2006
EXTT0=
EXTT1=
EXTT2=
EXTT3=
EXTT4=
EXTT5=
EXTT6=
EXTT7=
EXTT8=
EXTT9=
EXTT10=
EXTT11=
EXTT12=
EXTT13=
PLAYORDER=
